<svg xmlns="http://www.w3.org/2000/svg" viewBox="0 0 64 64" fill="none">
  <path
    d="M24 10L41 27M24 54L41 37M24 10C24 13.3137 21.3137 16 18 16C14.6863 16 12 13.3137 12 10C12 6.68629 14.6863 4 18 4C21.3137 4 24 6.68629 24 10ZM24 54C24 57.3137 21.3137 60 18 60C14.6863 60 12 57.3137 12 54C12 50.6863 14.6863 48 18 48C21.3137 48 24 50.6863 24 54Z"
    stroke="#FFFFFF"
    stroke-width="5"
    stroke-linecap="round"
    stroke-linejoin="round"
  />
  <path
    d="M40 28L49 19M40 36L49 45"
    stroke="#FFFFFF"
    stroke-width="5"
    stroke-linecap="round"
    stroke-linejoin="round"
  />
</svg>
